<?xml version="1.0" encoding="UTF-8"?>
<svg width="136px" height="217px" viewBox="0 0 136 217" version="1.1" xmlns="http://www.w3.org/2000/svg" xmlns:xlink="http://www.w3.org/1999/xlink">
    <!-- Generator: Sketch 49.1 (51147) - http://www.bohemiancoding.com/sketch -->
    <title>speaker</title>
    <desc>Created with Sketch.</desc>
    <defs></defs>
    <g id="Page-1" stroke="none" stroke-width="1" fill="none" fill-rule="evenodd" stroke-opacity="0.5">
        <g id="speaker" transform="translate(1.000000, 1.000000)" stroke="#FFFFFF" stroke-width="1.5">
            <path d="M120.5,5.5002 L13.5,5.5002 C9.082,5.5002 5.5,9.0822 5.5,13.5002 L5.5,201.3752 C5.5,205.7932 9.082,209.3752 13.5,209.3752 L120.5,209.3752 C124.918,209.3752 128.5,205.7932 128.5,201.3752 L128.5,13.5002 C128.5,9.0822 124.918,5.5002 120.5,5.5002 Z" id="Stroke-1"></path>
            <path d="M12.5,0.5002 L121.5,0.5002 C128.127,0.5002 133.5,5.8732 133.5,12.5002 L133.5,202.3752 C133.5,209.0022 128.127,214.3752 121.5,214.3752 L12.5,214.3752 C5.873,214.3752 0.5,209.0022 0.5,202.3752 L0.5,12.5002 C0.5,5.8732 5.873,0.5002 12.5,0.5002 Z" id="Stroke-3"></path>
            <path d="M67,26.4377 C79.996,26.4377 90.531,36.9587 90.531,49.9377 C90.531,62.9167 79.996,73.4377 67,73.4377 C54.004,73.4377 43.469,62.9167 43.469,49.9377 C43.469,36.9587 54.004,26.4377 67,26.4377 Z" id="Stroke-5"></path>
            <path d="M67,106.6252 C90.282,106.6252 109.156,125.4922 109.156,148.7662 C109.156,172.0392 90.282,190.9062 67,190.9062 C43.718,190.9062 24.844,172.0392 24.844,148.7662 C24.844,125.4922 43.718,106.6252 67,106.6252 Z" id="Stroke-7"></path>
            <path d="M67,129.3127 C77.752,129.3127 86.469,138.0147 86.469,148.7497 C86.469,159.4857 77.752,168.1877 67,168.1877 C56.248,168.1877 47.531,159.4857 47.531,148.7497 C47.531,138.0147 56.248,129.3127 67,129.3127 Z" id="Stroke-9"></path>
        </g>
    </g>
</svg>